<mxfile host="app.diagrams.net" modified="2022-09-02T01:07:27.327Z" agent="5.0 (Macintosh; Intel Mac OS X 10_15_7) AppleWebKit/537.36 (KHTML, like Gecko) Chrome/104.0.0.0 Safari/537.36" etag="J3XEwNE6uMhyaho6Lvjk" version="20.2.7" type="github">
  <diagram id="IDmKCRJ_K8n7wclULL1z" name="第 1 页">
    <mxGraphModel dx="2578" dy="1463" grid="1" gridSize="10" guides="1" tooltips="1" connect="1" arrows="1" fold="1" page="1" pageScale="1" pageWidth="827" pageHeight="1169" math="0" shadow="0">
      <root>
        <mxCell id="0" />
        <mxCell id="1" parent="0" />
      </root>
    </mxGraphModel>
  </diagram>
</mxfile>
